<?xml version="1.0" encoding="utf-8"?>
<!-- Generator: Adobe Illustrator 18.0.0, SVG Export Plug-In . SVG Version: 6.00 Build 0)  -->
<!DOCTYPE svg PUBLIC "-//W3C//DTD SVG 1.1//EN" "http://www.w3.org/Graphics/SVG/1.1/DTD/svg11.dtd">
<svg version="1.1" id="Ebene_1" xmlns="http://www.w3.org/2000/svg" xmlns:xlink="http://www.w3.org/1999/xlink" x="0px" y="0px"
	 viewBox="0 0 20 20" enable-background="new 0 0 20 20" xml:space="preserve">
<g>
	<path d="M7.9,7.1C7.3,7.1,7,7.2,7,8.9c0,3.7,2.4,6.6,5.9,6.6c1.5,0,2.9-0.6,3.6-1.3c0.5-0.5,0.5-0.5,0.7-0.5c0.2,0,0.3,0.2,0.3,0.3
		c0,0.5-2.3,3.4-6.5,3.4c-4.4,0-7.7-2.9-7.7-7.5c0-4.9,3.7-8.1,8.2-8.1c5,0,6.1,3.7,6.1,4.8c0,0.6-0.4,0.6-0.9,0.6L7.9,7.1L7.9,7.1z
		 M11.9,6.1c1.4,0,2.3-0.7,2.3-1.6c0-2-2.3-2-2.7-2c-3,0-4,2.7-4,3.2c0,0.4,0.1,0.4,0.9,0.4H11.9z"/>
</g>
</svg>
