<?xml version="1.0" encoding="utf-8"?>
<!-- Generator: Adobe Illustrator 18.0.0, SVG Export Plug-In . SVG Version: 6.00 Build 0)  -->
<!DOCTYPE svg PUBLIC "-//W3C//DTD SVG 1.1//EN" "http://www.w3.org/Graphics/SVG/1.1/DTD/svg11.dtd">
<svg version="1.1" id="Ebene_1" xmlns="http://www.w3.org/2000/svg" xmlns:xlink="http://www.w3.org/1999/xlink" x="0px" y="0px"
	 viewBox="0 0 20 20" enable-background="new 0 0 20 20" xml:space="preserve">
<g>
	<path d="M16.4,10.3H6.9c0.2,3.6,1.9,5,4.1,5c1.5,0,2.6-0.4,3.9-1.3l1,1.4c-1.4,1.1-3.1,1.8-5.1,1.8c-4.1,0-6.4-2.9-6.4-7.6
		c0-4.6,2.3-7.9,6.1-7.9c4,0,6,2.8,6,7.2C16.5,9.5,16.4,10,16.4,10.3z M14.2,8.4c0-3-1.2-4.7-3.6-4.7c-2.1,0-3.4,1.5-3.6,4.9h7.2
		L14.2,8.4L14.2,8.4z"/>
</g>
</svg>
