<?xml version="1.0" encoding="utf-8"?>
<!-- Generator: Adobe Illustrator 18.0.0, SVG Export Plug-In . SVG Version: 6.00 Build 0)  -->
<!DOCTYPE svg PUBLIC "-//W3C//DTD SVG 1.1//EN" "http://www.w3.org/Graphics/SVG/1.1/DTD/svg11.dtd">
<svg version="1.1" id="Ebene_1" xmlns="http://www.w3.org/2000/svg" xmlns:xlink="http://www.w3.org/1999/xlink" x="0px" y="0px"
	 viewBox="0 0 20 20" enable-background="new 0 0 20 20" xml:space="preserve">
<g>
	<path d="M16.7,7.6c0,0.4,0,0.9-0.1,1.3c-1.9,0.3-3.8,0.4-5.7,0.4H6.3c0,3.7,1.8,6.2,5.7,6.2c1.5,0,2.7-0.8,3.9-1.5l0.4,0.3
		l-0.6,1.1c-0.2,0.4-2.9,1.8-5,1.8c-4.8,0-7.3-3-7.3-7.3c0-3.1,0.8-4.9,2.3-6c0.6-0.5,1.3-1,2-1.3c1.1-0.5,2-0.8,3.1-0.8
		C14.1,1.9,16.7,4.1,16.7,7.6z M6.3,7.7v0.4c1.4,0.2,2.7,0.2,4,0.2c1.2,0,2.4,0,3.5-0.1c0-2.9-1.1-5.3-3.3-5.3
		C8.2,2.9,6.3,4.6,6.3,7.7z"/>
</g>
</svg>
