<?xml version="1.0" encoding="utf-8"?>
<!-- Generator: Adobe Illustrator 18.0.0, SVG Export Plug-In . SVG Version: 6.00 Build 0)  -->
<!DOCTYPE svg PUBLIC "-//W3C//DTD SVG 1.1//EN" "http://www.w3.org/Graphics/SVG/1.1/DTD/svg11.dtd">
<svg version="1.1" id="Ebene_1" xmlns="http://www.w3.org/2000/svg" xmlns:xlink="http://www.w3.org/1999/xlink" x="0px" y="0px"
	 viewBox="0 0 200 200" enable-background="new 0 0 200 200" xml:space="preserve">
<g>
	<path d="M110.2,25.5c18.2,0,32.2,6.7,41.3,18.2c10.2,12.6,13.3,29.8,13.3,45.2c-1.8,4.5-8.4,12.6-11.9,13c-20.7,0.7-66.9,1-88.6,1
		c-0.7,19.2,3.1,34,11.2,43.4c10.5,11.9,21.7,14,36.1,14c16.1,0,34.3-6.3,46.6-11.2c1.8,4.9,3.2,10.8,3.8,15.8
		c-19.6,9.5-40.6,14.7-55.7,14.7c-45.5,0-70.7-29.8-70.7-70.4C35.6,63.3,65,25.5,110.2,25.5z M80.1,52.8c-4.6,5.2-13.7,16.1-14.7,34
		c20,0,48.3-0.3,68.3-1c2.8-0.3,4.5-1.4,4.5-3.8c0-11.9-4.2-23.1-9.5-29.4c-5.2-6.3-12.6-10.5-22.4-10.5
		C94.1,41.9,86,46.1,80.1,52.8z"/>
</g>
</svg>
