<?xml version="1.0" encoding="utf-8"?>
<!-- Generator: Adobe Illustrator 18.0.0, SVG Export Plug-In . SVG Version: 6.00 Build 0)  -->
<!DOCTYPE svg PUBLIC "-//W3C//DTD SVG 1.1//EN" "http://www.w3.org/Graphics/SVG/1.1/DTD/svg11.dtd">
<svg version="1.1" id="Ebene_1" xmlns="http://www.w3.org/2000/svg" xmlns:xlink="http://www.w3.org/1999/xlink" x="0px" y="0px"
	 viewBox="0 0 200 200" enable-background="new 0 0 200 200" xml:space="preserve">
<g>
	<path d="M56.8,108c0,35.9,16.9,56.4,48.1,56.4c18.9,0,29.9-5.6,42.8-18.6l16.3,14.3c-16.6,16.6-31.9,25.2-59.8,25.2
		c-43.2,0-71.4-25.9-71.4-83.7C32.9,48.9,58.5,18,100,18c42.2,0,67.1,30.5,67.1,79v11H56.8z M138.2,62.9
		c-6.3-14.9-20.9-24.6-38.2-24.6c-17.3,0-31.9,9.6-38.2,24.6c-3.7,9-4.3,13.9-5,27.2h86.3C142.5,76.8,141.8,71.8,138.2,62.9z"/>
</g>
</svg>
