<?xml version="1.0" encoding="utf-8"?>
<!-- Generator: Adobe Illustrator 18.0.0, SVG Export Plug-In . SVG Version: 6.00 Build 0)  -->
<!DOCTYPE svg PUBLIC "-//W3C//DTD SVG 1.1//EN" "http://www.w3.org/Graphics/SVG/1.1/DTD/svg11.dtd">
<svg version="1.1" id="Ebene_1" xmlns="http://www.w3.org/2000/svg" xmlns:xlink="http://www.w3.org/1999/xlink" x="0px" y="0px"
	 viewBox="0 0 20 20" enable-background="new 0 0 20 20" xml:space="preserve">
<g>
	<path d="M6,10.3c0,3.4,1.6,5.3,4.6,5.3c1.8,0,2.8-0.5,4.1-1.8l1.5,1.4c-1.6,1.6-3,2.4-5.7,2.4c-4.1,0-6.8-2.5-6.8-7.9
		c0-5,2.4-7.9,6.4-7.9c4,0,6.4,2.9,6.4,7.5v1H6z M13.7,6.1c-0.6-1.4-2-2.3-3.6-2.3s-3,0.9-3.6,2.3C6.1,6.9,6.1,7.4,6,8.6h8.2
		C14.1,7.4,14.1,6.9,13.7,6.1z"/>
</g>
</svg>
