<?xml version="1.0" encoding="utf-8"?>
<!-- Generator: Adobe Illustrator 18.0.0, SVG Export Plug-In . SVG Version: 6.00 Build 0)  -->
<!DOCTYPE svg PUBLIC "-//W3C//DTD SVG 1.1//EN" "http://www.w3.org/Graphics/SVG/1.1/DTD/svg11.dtd">
<svg version="1.1" id="Ebene_1" xmlns="http://www.w3.org/2000/svg" xmlns:xlink="http://www.w3.org/1999/xlink" x="0px" y="0px"
	 viewBox="0 0 200 200" enable-background="new 0 0 200 200" xml:space="preserve">
<g>
	<path d="M164.6,109.8H61.2c2.7,38.7,20.4,54,44.8,54c16.2,0,28.1-4.6,42.1-14.3l11.3,15.2c-15.6,12.5-33.2,20.1-55.2,20.1
		c-44.2,0-70.1-31.4-70.1-82.3c0-50.3,25-85.4,65.9-85.4c43,0,65.3,30.2,65.3,78.7C165.2,101.2,164.9,106.4,164.6,109.8z
		 M139.9,88.4c0-32.3-12.8-50.9-39.3-50.9c-22.3,0-37.2,15.9-39.3,53.4h78.7V88.4z"/>
</g>
</svg>
