<?xml version="1.0" encoding="utf-8"?>
<!-- Generator: Adobe Illustrator 18.0.0, SVG Export Plug-In . SVG Version: 6.00 Build 0)  -->
<!DOCTYPE svg PUBLIC "-//W3C//DTD SVG 1.1//EN" "http://www.w3.org/Graphics/SVG/1.1/DTD/svg11.dtd">
<svg version="1.1" id="Ebene_1" xmlns="http://www.w3.org/2000/svg" xmlns:xlink="http://www.w3.org/1999/xlink" x="0px" y="0px"
	 viewBox="0 0 20 20" enable-background="new 0 0 20 20" xml:space="preserve">
<g>
	<path d="M6,10.1c0,2.7,2,4.9,4.8,4.9c2.1,0,3.5-1.3,4.5-3l2.1,1.2c-1.4,2.6-3.8,4.1-6.8,4.1c-4.4,0-7.2-3.3-7.2-7.6
		c0-4.3,2.5-7.9,7.1-7.9c4.7,0,7.2,3.9,7,8.3L6,10.1L6,10.1z M14.9,8c-0.3-2.1-2.1-3.8-4.3-3.8C8.4,4.2,6.4,5.9,6.1,8H14.9z"/>
</g>
</svg>
