<?xml version="1.0" encoding="utf-8"?>
<!-- Generator: Adobe Illustrator 18.0.0, SVG Export Plug-In . SVG Version: 6.00 Build 0)  -->
<!DOCTYPE svg PUBLIC "-//W3C//DTD SVG 1.1//EN" "http://www.w3.org/Graphics/SVG/1.1/DTD/svg11.dtd">
<svg version="1.1" id="Ebene_1" xmlns="http://www.w3.org/2000/svg" xmlns:xlink="http://www.w3.org/1999/xlink" x="0px" y="0px"
	 viewBox="0 0 200 200" enable-background="new 0 0 200 200" xml:space="preserve">
<g>
	<path d="M75.3,79.1c-5.3,0-8.1,0.3-8.1,16.4c0,34.7,22.9,61.4,54.9,61.4c14,0,26.7-5.3,34.1-12.4c4.7-4.6,5-5,6.8-5
		c2.2,0,2.8,1.9,2.8,2.8c0,4.7-21.7,31.9-61.1,31.9c-40.9,0-71.9-27-71.9-70.1c0-45.9,34.7-75.6,76.9-75.6
		c46.8,0,56.7,34.4,56.7,44.9c0,5.6-3.4,5.6-8.4,5.6H75.3z M113.5,69.5c13.3,0,21.1-6.8,21.1-14.9c0-18.3-21.1-18.9-25.7-18.9
		c-27.9,0-37.5,25.4-37.5,30.4c0,3.4,1.2,3.4,8.4,3.4H113.5z"/>
</g>
</svg>
