<?xml version="1.0" encoding="utf-8"?>
<!-- Generator: Adobe Illustrator 18.0.0, SVG Export Plug-In . SVG Version: 6.00 Build 0)  -->
<!DOCTYPE svg PUBLIC "-//W3C//DTD SVG 1.1//EN" "http://www.w3.org/Graphics/SVG/1.1/DTD/svg11.dtd">
<svg version="1.1" id="Ebene_1" xmlns="http://www.w3.org/2000/svg" xmlns:xlink="http://www.w3.org/1999/xlink" x="0px" y="0px"
	 viewBox="0 0 20 20" enable-background="new 0 0 20 20" xml:space="preserve">
<g>
	<path d="M7.5,10.2v0.4c0,1.3,0.2,2.2,0.6,2.9c0.8,1.2,2,1.7,3.4,1.7c1.4,0,2.6-0.5,3.6-1.4l1,1.6c-1.4,1.2-3.2,1.9-5.1,1.9
		c-4.1,0-6.6-3-6.6-7.7C4.5,7,5,5.4,6.2,3.9c1.2-1.4,2.6-2,4.4-2c1.6,0,3,0.5,4,1.6c1.3,1.3,1.8,3,1.8,6.3v0.5L7.5,10.2L7.5,10.2z
		 M12.7,4.9c-0.5-0.6-1.2-1-2.1-1c-2.1,0-3.1,1.7-3.1,4.3h6.1C13.6,6.8,13.3,5.7,12.7,4.9z"/>
</g>
</svg>
