<?xml version="1.0" encoding="utf-8"?>
<!-- Generator: Adobe Illustrator 18.0.0, SVG Export Plug-In . SVG Version: 6.00 Build 0)  -->
<!DOCTYPE svg PUBLIC "-//W3C//DTD SVG 1.1//EN" "http://www.w3.org/Graphics/SVG/1.1/DTD/svg11.dtd">
<svg version="1.1" id="Ebene_1" xmlns="http://www.w3.org/2000/svg" xmlns:xlink="http://www.w3.org/1999/xlink" x="0px" y="0px"
	 viewBox="0 0 100 100" enable-background="new 0 0 100 100" xml:space="preserve">
<g>
	<path d="M33.3,54.1v2c0,7.1,1,12.5,3.5,16.5c4.3,6.6,11.1,9.7,19,9.7c7.8,0,14.4-2.6,20.3-7.9l5.8,9.1C73.8,90.5,64,94,53.3,94
		c-22.9,0-37-16.7-37-43.7c0-14.4,2.8-23.6,9.9-32c6.6-7.8,14.7-11.4,24.9-11.4c9.2,0,16.7,3,22.4,8.9c7.3,7.4,9.9,16.7,10.1,35.6
		v2.6H33.3z M62.7,24.2c-2.6-3.3-6.6-5.8-11.9-5.8c-11.6,0-17.3,9.4-17.3,24.4h34.3C67.8,34.9,66,28.3,62.7,24.2z"/>
</g>
</svg>
