<?xml version="1.0" encoding="utf-8"?>
<!-- Generator: Adobe Illustrator 18.0.0, SVG Export Plug-In . SVG Version: 6.00 Build 0)  -->
<!DOCTYPE svg PUBLIC "-//W3C//DTD SVG 1.1//EN" "http://www.w3.org/Graphics/SVG/1.1/DTD/svg11.dtd">
<svg version="1.1" id="Ebene_1" xmlns="http://www.w3.org/2000/svg" xmlns:xlink="http://www.w3.org/1999/xlink" x="0px" y="0px"
	 viewBox="0 0 200 200" enable-background="new 0 0 200 200" xml:space="preserve">
<g>
	<path d="M163.8,150.6c-22.4,28-46.9,34.4-57.9,34.4c-43.7,0-69.2-35.5-69.2-75.6c0-24.5,8.9-46.1,23.4-62.1
		c14.6-16.3,33.7-25.9,52.2-25.9c29.5,0,53.2,26.3,53.2,54c0,7.1-1.8,9.9-8.2,11.4c-6,1.1-50.4,4.6-92.7,6
		c0.4,48.3,28,68.2,52.9,68.2c14.2,0,27.7-5.7,40.5-17.8L163.8,150.6z M66.5,78.2c19.9,0,39.4-0.4,60-1.1c6.4,0,8.5-2.1,8.5-7.1
		c0.4-18.5-11.7-35.5-31.2-35.5C87.5,34.5,71.8,49.4,66.5,78.2z"/>
</g>
</svg>
