<?xml version="1.0" encoding="utf-8"?>
<!-- Generator: Adobe Illustrator 18.0.0, SVG Export Plug-In . SVG Version: 6.00 Build 0)  -->
<!DOCTYPE svg PUBLIC "-//W3C//DTD SVG 1.1//EN" "http://www.w3.org/Graphics/SVG/1.1/DTD/svg11.dtd">
<svg version="1.1" id="Ebene_1" xmlns="http://www.w3.org/2000/svg" xmlns:xlink="http://www.w3.org/1999/xlink" x="0px" y="0px"
	 viewBox="0 0 200 200" enable-background="new 0 0 200 200" xml:space="preserve">
<g>
	<path d="M164.6,82.3c0,4.4,0,8.7-0.6,13.1c-18.7,3.1-37.8,4.4-56.5,4.4H61.9c0,36.5,18.1,61.5,56.5,61.5c15,0,26.8-7.5,38.7-14.7
		l4.1,3.1l-6.2,10.6c-2.2,3.7-28.7,17.5-49.9,17.5c-47.1,0-72.1-30-72.1-72.1c0-30.3,8.1-48.4,22.5-59.6c5.9-4.7,12.5-9.4,19.3-12.5
		c10.9-5,20-8.4,30.6-8.4C139.3,25.2,164.6,47,164.6,82.3z M62.5,83.2v4.1c13.4,1.6,26.8,1.9,39.6,1.9c12.2,0,23.7-0.3,34.6-0.9
		c0-29-10.6-52.7-33.1-52.7C80.6,35.5,62.5,52,62.5,83.2z"/>
</g>
</svg>
