<?xml version="1.0" encoding="utf-8"?>
<!-- Generator: Adobe Illustrator 18.0.0, SVG Export Plug-In . SVG Version: 6.00 Build 0)  -->
<!DOCTYPE svg PUBLIC "-//W3C//DTD SVG 1.1//EN" "http://www.w3.org/Graphics/SVG/1.1/DTD/svg11.dtd">
<svg version="1.1" id="Ebene_1" xmlns="http://www.w3.org/2000/svg" xmlns:xlink="http://www.w3.org/1999/xlink" x="0px" y="0px"
	 viewBox="0 0 20 20" enable-background="new 0 0 20 20" xml:space="preserve">
<g>
	<path d="M11.2,1.9c1.9,0,3.3,0.7,4.2,1.9c1,1.3,1.4,3.1,1.4,4.6c-0.2,0.5-0.9,1.3-1.2,1.3c-2.1,0.1-6.9,0.1-9.1,0.1
		c-0.1,2,0.3,3.5,1.2,4.5c1.1,1.2,2.2,1.4,3.7,1.4c1.7,0,3.5-0.6,4.8-1.2c0.2,0.5,0.3,1.1,0.4,1.6c-2,1-4.2,1.5-5.7,1.5
		c-4.7,0-7.3-3.1-7.3-7.2C3.5,5.7,6.6,1.9,11.2,1.9z M8.1,4.7C7.6,5.2,6.7,6.3,6.6,8.2c2.1,0,5,0,7-0.1c0.3,0,0.5-0.1,0.5-0.4
		c0-1.2-0.4-2.4-1-3c-0.5-0.6-1.3-1.1-2.3-1.1C9.6,3.5,8.7,4,8.1,4.7z"/>
</g>
</svg>
