<?xml version="1.0" encoding="utf-8"?>
<!-- Generator: Adobe Illustrator 18.0.0, SVG Export Plug-In . SVG Version: 6.00 Build 0)  -->
<!DOCTYPE svg PUBLIC "-//W3C//DTD SVG 1.1//EN" "http://www.w3.org/Graphics/SVG/1.1/DTD/svg11.dtd">
<svg version="1.1" id="Ebene_1" xmlns="http://www.w3.org/2000/svg" xmlns:xlink="http://www.w3.org/1999/xlink" x="0px" y="0px"
	 viewBox="0 0 100 100" enable-background="new 0 0 100 100" xml:space="preserve">
<g>
	<path d="M77.8,80.5v9.7c-5.2,1.6-11.5,2.5-18.8,2.5c-12.7,0-22.5-3.8-29.4-11.5c-7-7.8-10.5-19.1-10.5-34.1
		c0-12.6,2.6-22.3,7.8-29.2C32.4,10.6,40.5,7,51.1,7c9.3,0,16.4,2.9,21.5,8.8c4.7,5.5,7,13,7,22.3v3.9H32.5v4.9
		c0,8.5,1.9,16,5.7,22.5c5.2,8.9,12.9,13.3,23.3,13.3C65.8,82.8,71.2,82,77.8,80.5z M32.5,32.3h33.7c0-3.6-1.1-6.9-3.4-9.8
		c-2.9-3.8-7.1-5.7-12.6-5.7C40.4,16.8,34.5,22,32.5,32.3z"/>
</g>
</svg>
