<?xml version="1.0" encoding="utf-8"?>
<!-- Generator: Adobe Illustrator 18.0.0, SVG Export Plug-In . SVG Version: 6.00 Build 0)  -->
<!DOCTYPE svg PUBLIC "-//W3C//DTD SVG 1.1//EN" "http://www.w3.org/Graphics/SVG/1.1/DTD/svg11.dtd">
<svg version="1.1" id="Ebene_1" xmlns="http://www.w3.org/2000/svg" xmlns:xlink="http://www.w3.org/1999/xlink" x="0px" y="0px"
	 viewBox="0 0 20 20" enable-background="new 0 0 20 20" xml:space="preserve">
<g>
	<path d="M16,14c-2.1,2.6-4.4,3.2-5.4,3.2c-4.1,0-6.5-3.3-6.5-7.1c0-2.3,0.8-4.3,2.2-5.8c1.4-1.5,3.2-2.4,4.9-2.4c2.8,0,5,2.5,5,5.1
		c0,0.7-0.2,0.9-0.8,1.1c-0.6,0.1-4.7,0.4-8.7,0.6c0,4.5,2.6,6.4,5,6.4c1.3,0,2.6-0.5,3.8-1.7L16,14z M6.8,7.2c1.9,0,3.7,0,5.6-0.1
		c0.6,0,0.8-0.2,0.8-0.7c0-1.7-1.1-3.3-2.9-3.3C8.8,3.1,7.3,4.5,6.8,7.2z"/>
</g>
</svg>
