<?xml version="1.0" encoding="utf-8"?>
<!-- Generator: Adobe Illustrator 18.0.0, SVG Export Plug-In . SVG Version: 6.00 Build 0)  -->
<!DOCTYPE svg PUBLIC "-//W3C//DTD SVG 1.1//EN" "http://www.w3.org/Graphics/SVG/1.1/DTD/svg11.dtd">
<svg version="1.1" id="Ebene_1" xmlns="http://www.w3.org/2000/svg" xmlns:xlink="http://www.w3.org/1999/xlink" x="0px" y="0px"
	 viewBox="0 0 200 200" enable-background="new 0 0 200 200" xml:space="preserve">
<g>
	<path d="M60.7,105.3c-0.6,30,11.8,52.1,41.5,52.1c17.6,0,31.7-9.2,34-30h27.1c-0.9,7.2-2,19-12.4,30.2
		c-6.3,7.2-20.7,19.3-49.8,19.3c-45.5,0-67.1-28.2-67.1-74c0-28.5,5.8-52.1,28.5-68c13.8-9.8,31.1-10.7,39.5-10.7
		c64.8,0,63.4,57.3,62.8,80.9H60.7z M137,86.2c0.3-13.8-2.3-42.6-35.7-42.6c-17.6,0-38.9,10.7-39.5,42.6H137z"/>
</g>
</svg>
