<?xml version="1.0" encoding="utf-8"?>
<!-- Generator: Adobe Illustrator 18.0.0, SVG Export Plug-In . SVG Version: 6.00 Build 0)  -->
<!DOCTYPE svg PUBLIC "-//W3C//DTD SVG 1.1//EN" "http://www.w3.org/Graphics/SVG/1.1/DTD/svg11.dtd">
<svg version="1.1" id="Ebene_1" xmlns="http://www.w3.org/2000/svg" xmlns:xlink="http://www.w3.org/1999/xlink" x="0px" y="0px"
	 viewBox="0 0 20 20" enable-background="new 0 0 20 20" xml:space="preserve">
<g>
	<path d="M6.6,10c-0.1,3,1.2,5.2,4.2,5.2c1.8,0,3.2-0.9,3.4-3h2.7c-0.1,0.7-0.2,1.9-1.2,3c-0.6,0.7-2.1,1.9-5,1.9
		c-4.6,0-6.7-2.8-6.7-7.4c0-2.9,0.6-5.2,2.9-6.8c1.4-1,3.1-1.1,4-1.1c6.5,0,6.4,5.7,6.3,8.1L6.6,10L6.6,10z M14.2,8.1
		c0-1.4-0.2-4.3-3.6-4.3c-1.8,0-3.9,1.1-4,4.3H14.2z"/>
</g>
</svg>
