<?xml version="1.0" encoding="utf-8"?>
<!-- Generator: Adobe Illustrator 18.0.0, SVG Export Plug-In . SVG Version: 6.00 Build 0)  -->
<!DOCTYPE svg PUBLIC "-//W3C//DTD SVG 1.1//EN" "http://www.w3.org/Graphics/SVG/1.1/DTD/svg11.dtd">
<svg version="1.1" id="Ebene_1" xmlns="http://www.w3.org/2000/svg" xmlns:xlink="http://www.w3.org/1999/xlink" x="0px" y="0px"
	 viewBox="0 0 200 200" enable-background="new 0 0 200 200" xml:space="preserve">
<g>
	<path d="M67.2,98.4c-0.6,30.7,7,65.1,43.6,65.1c23.4,0,34.1-13.9,42.3-31l9.5,5.1c-8.2,23.7-25.3,41.7-58.5,41.7
		c-49.9,0-68.9-28.8-68.9-75.5c0-44.6,22.1-77.7,68.9-77.7c54.4,0,60.4,42.3,60.4,60.4c0,9.8-5.7,12-12.3,12H67.2z M122.8,86
		c8.2,0,10.1-3.5,10.1-9.5c0-11.7-3.5-39.5-30.3-39.5c-30.7,0-35.1,36.3-35.1,49H122.8z"/>
</g>
</svg>
