<?xml version="1.0" encoding="utf-8"?>
<!-- Generator: Adobe Illustrator 18.0.0, SVG Export Plug-In . SVG Version: 6.00 Build 0)  -->
<!DOCTYPE svg PUBLIC "-//W3C//DTD SVG 1.1//EN" "http://www.w3.org/Graphics/SVG/1.1/DTD/svg11.dtd">
<svg version="1.1" id="Ebene_1" xmlns="http://www.w3.org/2000/svg" xmlns:xlink="http://www.w3.org/1999/xlink" x="0px" y="0px"
	 viewBox="0 0 20 20" enable-background="new 0 0 20 20" xml:space="preserve">
<g>
	<path d="M7.2,9.1c-0.1,3.1,0.7,6.6,4.4,6.6c2.4,0,3.4-1.4,4.3-3.1l1,0.5c-0.8,2.4-2.6,4.2-5.9,4.2c-5,0-7-2.9-7-7.6
		c0-4.5,2.2-7.8,7-7.8c5.5,0,6.1,4.3,6.1,6.1c0,1-0.6,1.2-1.2,1.2L7.2,9.1L7.2,9.1z M12.8,7.9c0.8,0,1-0.4,1-1c0-1.2-0.4-4-3.1-4
		c-3.1,0-3.5,3.7-3.5,4.9H12.8z"/>
</g>
</svg>
