<?xml version="1.0" encoding="utf-8"?>
<!-- Generator: Adobe Illustrator 18.0.0, SVG Export Plug-In . SVG Version: 6.00 Build 0)  -->
<!DOCTYPE svg PUBLIC "-//W3C//DTD SVG 1.1//EN" "http://www.w3.org/Graphics/SVG/1.1/DTD/svg11.dtd">
<svg version="1.1" id="Ebene_1" xmlns="http://www.w3.org/2000/svg" xmlns:xlink="http://www.w3.org/1999/xlink" x="0px" y="0px"
	 viewBox="0 0 20 20" enable-background="new 0 0 20 20" xml:space="preserve">
<g>
	<path d="M15.5,15v1.8c-0.9,0.3-2.1,0.5-3.4,0.5c-2.3,0-4.1-0.7-5.3-2.1C5.4,13.8,4.8,11.7,4.8,9c0-2.3,0.5-4,1.4-5.3
		c1-1.3,2.5-2,4.4-2c1.7,0,3,0.5,3.9,1.6c0.9,1,1.3,2.4,1.3,4v0.7H7.2v0.9c0,1.5,0.3,2.9,1,4.1c0.9,1.6,2.3,2.4,4.2,2.4
		C13.3,15.5,14.3,15.3,15.5,15z M7.2,6.3h6.1c0-0.7-0.2-1.3-0.6-1.8c-0.5-0.7-1.3-1-2.3-1C8.7,3.5,7.6,4.4,7.2,6.3z"/>
</g>
</svg>
