<svg xmlns="http://www.w3.org/2000/svg" version="1.1" id="Ebene_1" x="0px" y="0px" viewBox="0 0 20 20" enable-background="new 0 0 20 20" xml:space="preserve"><path fill-rule="evenodd" clip-rule="evenodd" d="M10 0.9c-5.2 0-9.3 4.2-9.3 9.3 0 4.1 2.7 7.6 6.4 8.9 0.5 0.1 0.6-0.2 0.6-0.5 0-0.2 0-0.8 0-1.6 -2.6 0.6-3.1-1.3-3.1-1.3 -0.4-1.1-1-1.4-1-1.4 -0.8-0.6 0.1-0.6 0.1-0.6 0.9 0.1 1.4 1 1.4 1 0.8 1.4 2.2 1 2.7 0.8 0.1-0.6 0.3-1 0.6-1.2C6.2 14.1 4 13.3 4 9.7c0-1 0.4-1.9 1-2.5C4.9 7 4.6 6 5.1 4.8c0 0 0.8-0.3 2.6 1C8.4 5.5 9.2 5.4 10 5.4c0.8 0 1.6 0.1 2.3 0.3 1.8-1.2 2.6-1 2.6-1C15.4 6 15.1 7 15 7.2c0.6 0.7 1 1.5 1 2.5 0 3.6-2.2 4.4-4.3 4.6 0.3 0.3 0.6 0.9 0.6 1.7 0 1.2 0 2.3 0 2.6 0 0.2 0.2 0.5 0.6 0.4 3.7-1.2 6.4-4.7 6.4-8.9C19.3 5.1 15.2 0.9 10 0.9z"/></svg>